<svg width="165" height="50" viewBox="0 0 165 50" fill="none" xmlns="http://www.w3.org/2000/svg">
<path d="M159.844 50H5.15625C2.32031 50 0 47.75 0 45V5C0 2.25 2.32031 0 5.15625 0H159.844C162.68 0 165 2.25 165 5V45C165 47.75 162.68 50 159.844 50Z" fill="black"/>
<path d="M38.6946 23.7589C38.6946 20.0389 41.843 18.2388 41.9641 18.1188C40.1477 15.5988 37.4837 15.2389 36.5149 15.1189C34.2141 14.8789 31.9134 16.4389 30.8235 16.4389C29.6126 16.4389 27.7962 15.1189 25.8587 15.1189C23.3157 15.1189 21.0149 16.5589 19.6829 18.8389C17.0188 23.3989 18.9563 30.1189 21.4993 33.8389C22.8313 35.6389 24.2844 37.6789 26.2219 37.5589C28.1594 37.4389 28.886 36.3589 31.1868 36.3589C33.4876 36.3589 34.093 37.5589 36.1516 37.5589C38.2102 37.5589 39.5423 35.7589 40.7532 33.9589C42.2063 31.9188 42.8118 29.8789 42.8118 29.7589C42.6907 29.6389 38.6946 28.1989 38.6946 23.7589Z" fill="white"/>
<path d="M34.9402 12.7219C35.909 11.4019 36.6356 9.72188 36.5145 7.92188C35.0613 8.04188 33.1238 8.88187 32.1551 10.2019C31.1863 11.2819 30.3387 13.0819 30.5809 14.7619C32.1551 14.8819 33.8504 13.9219 34.9402 12.7219Z" fill="white"/>
<path d="M66.3047 37.3198H63.6406L62.1875 32.7598H57.1016L55.7695 37.3198H53.2266L58.3125 21.8398H61.4609L66.3047 37.3198ZM61.7031 30.8398L60.3711 26.7598C60.25 26.3998 60.0078 25.3198 59.5234 23.8798C59.4023 24.4798 59.1602 25.5598 58.7969 26.7598L57.4648 30.8398H61.7031Z" fill="white"/>
<path d="M79.2617 31.6791C79.2617 33.5991 78.7773 35.0391 77.6875 36.2391C76.7188 37.1991 75.6289 37.6791 74.1758 37.6791C72.7227 37.6791 71.6328 37.1991 71.0273 36.1191V41.9991H68.4844V29.9991C68.4844 28.7991 68.4844 27.5991 68.3633 26.2791H70.543L70.6641 28.0791C71.5117 26.7591 72.7227 26.0391 74.418 26.0391C75.75 26.0391 76.8398 26.5191 77.6875 27.5991C78.7773 28.5591 79.2617 29.8791 79.2617 31.6791ZM76.7188 31.6791C76.7188 30.5991 76.4766 29.6391 75.9922 29.0391C75.5078 28.3191 74.7812 27.9591 73.8125 27.9591C73.207 27.9591 72.6016 28.1991 72.1172 28.5591C71.6328 28.9191 71.2695 29.5191 71.1484 30.1191C71.0273 30.4791 71.0273 30.7191 71.0273 30.8391V32.7591C71.0273 33.5991 71.2695 34.1991 71.7539 34.7991C72.2383 35.3991 72.9648 35.6391 73.6914 35.6391C74.6602 35.6391 75.3867 35.2791 75.8711 34.5591C76.4766 33.8391 76.7188 32.8791 76.7188 31.6791Z" fill="white"/>
<path d="M92.2188 31.6791C92.2188 33.5991 91.7344 35.0391 90.6445 36.2391C89.6758 37.1991 88.5859 37.6791 87.1328 37.6791C85.6797 37.6791 84.5898 37.1991 83.9844 36.1191V41.9991H81.4414V29.9991C81.4414 28.7991 81.4414 27.5991 81.3203 26.2791H83.5L83.6211 28.0791C84.4688 26.7591 85.6797 26.0391 87.375 26.0391C88.707 26.0391 89.7969 26.5191 90.6445 27.5991C91.7344 28.5591 92.2188 29.8791 92.2188 31.6791ZM89.6758 31.6791C89.6758 30.5991 89.4336 29.6391 88.9492 29.0391C88.4648 28.3191 87.7383 27.9591 86.7695 27.9591C86.1641 27.9591 85.5586 28.1991 85.0742 28.5591C84.5898 28.9191 84.2266 29.5191 84.1055 30.1191C83.9844 30.4791 83.9844 30.7191 83.9844 30.8391V32.7591C83.9844 33.5991 84.2266 34.1991 84.7109 34.7991C85.1953 35.3991 85.9219 35.6391 86.6484 35.6391C87.6172 35.6391 88.3437 35.2791 88.8281 34.5591C89.4336 33.8391 89.6758 32.8791 89.6758 31.6791Z" fill="white"/>
<path d="M106.75 32.9988C106.75 34.3188 106.266 35.3988 105.418 36.2388C104.449 37.1988 102.996 37.5588 101.18 37.5588C99.4844 37.5588 98.1523 37.1988 97.1836 36.5988L97.7891 34.5588C98.8789 35.1588 100.09 35.5188 101.422 35.5188C102.391 35.5188 103.117 35.2788 103.602 34.9188C104.086 34.4388 104.328 33.9588 104.328 33.2388C104.328 32.6388 104.086 32.0388 103.723 31.6788C103.238 31.1988 102.512 30.8388 101.543 30.4788C98.7578 29.5188 97.4258 27.9588 97.4258 26.0388C97.4258 24.7188 97.9102 23.7587 98.8789 22.9188C99.8477 22.0788 101.059 21.7188 102.754 21.7188C104.207 21.7188 105.297 21.9588 106.266 22.4388L105.66 24.4788C104.812 23.9988 103.844 23.7588 102.633 23.7588C101.785 23.7588 101.059 23.9988 100.574 24.3588C100.211 24.7188 99.9688 25.1988 99.9688 25.7988C99.9688 26.3988 100.211 26.8788 100.695 27.3588C101.059 27.7188 101.906 28.0788 102.996 28.5588C104.328 29.0388 105.297 29.7588 106.023 30.4788C106.387 31.0788 106.75 31.9188 106.75 32.9988Z" fill="white"/>
<path d="M114.984 28.0784H112.199V33.4784C112.199 34.7984 112.684 35.5184 113.652 35.5184C114.137 35.5184 114.5 35.5184 114.742 35.3984L114.863 37.3184C114.379 37.5584 113.773 37.5584 112.926 37.5584C111.957 37.5584 111.109 37.3184 110.625 36.7184C110.02 36.1184 109.777 35.1584 109.777 33.7184V28.0784H108.082V26.1584H109.777V24.1184L112.199 23.3984V26.1584H114.984V28.0784Z" fill="white"/>
<path d="M127.457 31.6819C127.457 33.3619 126.973 34.8019 126.004 35.8819C124.914 36.9619 123.582 37.5619 121.887 37.5619C120.191 37.5619 118.859 36.9619 117.891 35.8819C116.922 34.8019 116.438 33.4819 116.438 31.8019C116.438 30.1219 116.922 28.6819 118.012 27.6019C118.98 26.5219 120.434 25.9219 122.129 25.9219C123.824 25.9219 125.156 26.5219 126.125 27.6019C126.973 28.6819 127.457 30.0019 127.457 31.6819ZM124.793 31.8019C124.793 30.7219 124.551 29.8819 124.066 29.1619C123.582 28.3219 122.734 27.8419 121.766 27.8419C120.797 27.8419 119.949 28.3219 119.465 29.1619C118.98 29.8819 118.738 30.8419 118.738 31.8019C118.738 32.8819 118.98 33.7219 119.465 34.4419C119.949 35.2819 120.797 35.7619 121.766 35.7619C122.734 35.7619 123.461 35.2819 124.066 34.4419C124.551 33.7219 124.793 32.7619 124.793 31.8019Z" fill="white"/>
<path d="M135.57 28.3208C135.328 28.3208 135.086 28.2008 134.723 28.2008C133.875 28.2008 133.148 28.5608 132.664 29.1608C132.301 29.7608 132.059 30.4808 132.059 31.3208V37.2008H129.516V29.5208C129.516 28.2008 129.516 27.1208 129.395 26.0408H131.574L131.695 28.2008H131.816C132.059 27.4808 132.543 26.8808 133.027 26.4008C133.633 26.0408 134.238 25.8008 134.844 25.8008C135.086 25.8008 135.328 25.8008 135.449 25.8008V28.3208H135.57Z" fill="white"/>
<path d="M146.711 31.2019C146.711 31.6819 146.711 32.0419 146.59 32.2819H139.082C139.082 33.3619 139.445 34.2019 140.172 34.8019C140.777 35.2819 141.625 35.6419 142.594 35.6419C143.684 35.6419 144.773 35.5219 145.621 35.1619L145.984 36.8419C144.895 37.3219 143.684 37.5619 142.23 37.5619C140.535 37.5619 139.082 37.0819 138.113 36.0019C137.145 35.0419 136.66 33.6019 136.66 31.9219C136.66 30.2419 137.145 28.8019 137.992 27.7219C138.961 26.5219 140.293 25.9219 141.988 25.9219C143.562 25.9219 144.895 26.5219 145.621 27.7219C146.469 28.6819 146.711 29.8819 146.711 31.2019ZM144.41 30.6019C144.41 29.8819 144.289 29.2819 143.926 28.6819C143.441 27.9619 142.836 27.6019 141.988 27.6019C141.141 27.6019 140.535 27.9619 140.051 28.5619C139.687 29.0419 139.445 29.7619 139.324 30.4819H144.41V30.6019Z" fill="white"/>
<path d="M60.9766 12.3617C60.9766 13.6817 60.6133 14.7617 59.7656 15.4817C59.0391 16.0817 57.9492 16.4417 56.4961 16.4417C55.7695 16.4417 55.1641 16.4417 54.6797 16.3217V8.88172C55.2852 8.76172 56.0117 8.76172 56.8594 8.76172C58.1914 8.76172 59.1602 9.00172 59.8867 9.60172C60.4922 10.2017 60.9766 11.1617 60.9766 12.3617ZM59.6445 12.3617C59.6445 11.5217 59.4023 10.8017 58.918 10.3217C58.4336 9.84172 57.707 9.60172 56.8594 9.60172C56.4961 9.60172 56.1328 9.60172 55.8906 9.72172V15.3617C56.0117 15.3617 56.375 15.3617 56.7383 15.3617C57.707 15.3617 58.4336 15.1217 58.918 14.6417C59.4023 14.1617 59.6445 13.3217 59.6445 12.3617Z" fill="white"/>
<path d="M67.7578 13.5597C67.7578 14.3997 67.5156 15.1197 67.0313 15.5997C66.5469 16.1997 65.8203 16.4397 64.9727 16.4397C64.125 16.4397 63.5195 16.1997 63.0352 15.5997C62.5508 15.1197 62.3086 14.3997 62.3086 13.5597C62.3086 12.7197 62.5508 11.9997 63.0352 11.5197C63.5195 10.9197 64.2461 10.6797 65.0938 10.6797C65.9414 10.6797 66.5469 10.9197 67.0313 11.5197C67.5156 11.9997 67.7578 12.7197 67.7578 13.5597ZM66.5469 13.5597C66.5469 13.0797 66.4258 12.5997 66.1836 12.2397C65.9414 11.7597 65.5781 11.6397 65.0938 11.6397C64.6094 11.6397 64.2461 11.8797 64.0039 12.2397C63.7617 12.5997 63.6406 13.0797 63.6406 13.5597C63.6406 14.0397 63.7617 14.5197 64.0039 14.8797C64.2461 15.3597 64.6094 15.4797 65.0938 15.4797C65.5781 15.4797 65.9414 15.2397 66.1836 14.7597C66.4258 14.5197 66.5469 14.0397 66.5469 13.5597Z" fill="white"/>
<path d="M77.082 10.8008L75.3867 16.3208H74.2969L73.5703 13.9208C73.3281 13.3208 73.207 12.7208 73.0859 12.1208C72.9648 12.7208 72.8438 13.3208 72.6016 13.9208L71.875 16.3208H70.7852L68.9688 10.8008H70.1797L70.7852 13.4408C70.9062 14.0408 71.0273 14.6408 71.1484 15.2408C71.2695 14.7608 71.3906 14.1608 71.6328 13.4408L72.3594 10.8008H73.3281L74.0547 13.3208C74.2969 13.9208 74.418 14.5208 74.5391 15.1208C74.6602 14.5208 74.7813 13.9208 74.9023 13.3208L75.6289 10.8008H77.082Z" fill="white"/>
<path d="M83.3789 16.3186H82.168V13.1986C82.168 12.2386 81.8047 11.7586 81.0781 11.7586C80.7148 11.7586 80.4727 11.8786 80.2305 12.1186C79.9883 12.3586 79.8672 12.7186 79.8672 13.0786V16.3186H78.6562V12.3586C78.6562 11.8786 78.6562 11.3986 78.6562 10.7986H79.7461V11.6386C79.8672 11.3986 80.1094 11.1586 80.3516 10.9186C80.7148 10.6786 81.0781 10.5586 81.4414 10.5586C81.9258 10.5586 82.4102 10.6786 82.7734 11.0386C83.2578 11.3986 83.3789 11.9986 83.3789 12.8386V16.3186Z" fill="white"/>
<path d="M86.7695 16.3212H85.5586V8.28125H86.7695V16.3212Z" fill="white"/>
<path d="M94.0352 13.5597C94.0352 14.3997 93.793 15.1197 93.3086 15.5997C92.8242 16.1997 92.0977 16.4397 91.25 16.4397C90.4023 16.4397 89.7969 16.1997 89.3125 15.5997C88.8281 15.1197 88.5859 14.3997 88.5859 13.5597C88.5859 12.7197 88.8281 11.9997 89.3125 11.5197C89.7969 11.0397 90.5234 10.6797 91.3711 10.6797C92.2187 10.6797 92.8242 10.9197 93.3086 11.5197C93.793 11.9997 94.0352 12.7197 94.0352 13.5597ZM92.8242 13.5597C92.8242 13.0797 92.7031 12.5997 92.4609 12.2397C92.2187 11.7597 91.8555 11.6397 91.3711 11.6397C90.8867 11.6397 90.5234 11.8797 90.2813 12.2397C90.0391 12.5997 89.918 13.0797 89.918 13.5597C89.918 14.0397 90.0391 14.5197 90.2813 14.8797C90.5234 15.3597 90.8867 15.4797 91.3711 15.4797C91.8555 15.4797 92.2187 15.2397 92.4609 14.7597C92.7031 14.5197 92.8242 14.0397 92.8242 13.5597Z" fill="white"/>
<path d="M99.9688 16.3197H98.8789L98.7578 15.7197C98.3945 16.1997 97.7891 16.4397 97.1836 16.4397C96.6992 16.4397 96.2148 16.3197 95.9727 15.9597C95.7305 15.5997 95.4883 15.2397 95.4883 14.8797C95.4883 14.1597 95.7305 13.6797 96.3359 13.3197C96.9414 12.9597 97.668 12.8397 98.7578 12.8397V12.7197C98.7578 11.9997 98.3945 11.6397 97.668 11.6397C97.0625 11.6397 96.6992 11.7597 96.2148 11.9997L95.9727 11.1597C96.457 10.7997 97.0625 10.6797 97.9102 10.6797C99.3633 10.6797 100.09 11.3997 100.09 12.9597V14.9997C99.9688 15.5997 99.9688 15.9597 99.9688 16.3197ZM98.7578 14.3997V13.5597C97.4258 13.5597 96.6992 13.9197 96.6992 14.6397C96.6992 14.8797 96.8203 15.1197 96.9414 15.2397C97.0625 15.3597 97.3047 15.4797 97.5469 15.4797C97.7891 15.4797 98.0313 15.3597 98.2734 15.2397C98.5156 15.1197 98.6367 14.8797 98.7578 14.6397C98.7578 14.6397 98.7578 14.5197 98.7578 14.3997Z" fill="white"/>
<path d="M106.992 16.3184H105.902V15.4784C105.539 16.1984 104.934 16.4384 104.086 16.4384C103.359 16.4384 102.875 16.1984 102.391 15.7184C101.906 15.2384 101.785 14.5184 101.785 13.6784C101.785 12.8384 102.027 12.1184 102.512 11.5184C102.996 11.0384 103.602 10.7984 104.207 10.7984C104.934 10.7984 105.418 11.0384 105.781 11.5184V8.39844H106.992V14.8784C106.992 15.3584 106.992 15.8384 106.992 16.3184ZM105.781 14.0384V13.0784C105.781 12.9584 105.781 12.8384 105.781 12.7184C105.66 12.4784 105.539 12.2384 105.297 11.9984C105.055 11.7584 104.812 11.7584 104.449 11.7584C103.965 11.7584 103.602 11.9984 103.359 12.3584C103.117 12.7184 102.996 13.1984 102.996 13.7984C102.996 14.3984 103.117 14.7584 103.359 15.1184C103.602 15.4784 103.965 15.7184 104.449 15.7184C104.812 15.7184 105.176 15.5984 105.418 15.2384C105.66 14.7584 105.781 14.3984 105.781 14.0384Z" fill="white"/>
<path d="M117.527 13.5597C117.527 14.3997 117.285 15.1197 116.801 15.5997C116.316 16.1997 115.59 16.4397 114.742 16.4397C113.895 16.4397 113.289 16.1997 112.805 15.5997C112.32 15.1197 112.078 14.3997 112.078 13.5597C112.078 12.7197 112.32 11.9997 112.805 11.5197C113.289 10.9197 114.016 10.6797 114.863 10.6797C115.711 10.6797 116.316 10.9197 116.801 11.5197C117.285 11.9997 117.527 12.7197 117.527 13.5597ZM116.195 13.5597C116.195 13.0797 116.074 12.5997 115.832 12.2397C115.59 11.7597 115.227 11.6397 114.742 11.6397C114.258 11.6397 113.895 11.8797 113.652 12.2397C113.41 12.5997 113.289 13.0797 113.289 13.5597C113.289 14.0397 113.41 14.5197 113.652 14.8797C113.895 15.3597 114.258 15.4797 114.742 15.4797C115.227 15.4797 115.59 15.2397 115.832 14.7597C116.074 14.5197 116.195 14.0397 116.195 13.5597Z" fill="white"/>
<path d="M124.188 16.3186H122.977V13.1986C122.977 12.2386 122.613 11.7586 121.887 11.7586C121.523 11.7586 121.281 11.8786 121.039 12.1186C120.797 12.3586 120.676 12.7186 120.676 13.0786V16.3186H119.465V12.3586C119.465 11.8786 119.465 11.3986 119.465 10.7986H120.555V11.6386C120.676 11.3986 120.918 11.1586 121.16 10.9186C121.523 10.6786 121.887 10.5586 122.25 10.5586C122.734 10.5586 123.219 10.6786 123.582 11.0386C124.066 11.3986 124.188 11.9986 124.188 12.8386V16.3186Z" fill="white"/>
<path d="M132.422 11.7605H131.09V14.4005C131.09 15.1205 131.332 15.3605 131.816 15.3605C132.059 15.3605 132.18 15.3605 132.422 15.3605V16.3205C132.18 16.4405 131.816 16.4405 131.453 16.4405C130.969 16.4405 130.605 16.3205 130.363 15.9605C130.121 15.7205 130 15.1205 130 14.5205V11.7605H129.152V10.8005H130V9.84047L131.211 9.48047V10.8005H132.543V11.7605H132.422Z" fill="white"/>
<path d="M138.961 16.3212H137.75V13.2013C137.75 12.2413 137.387 11.7612 136.66 11.7612C136.055 11.7612 135.691 12.0013 135.449 12.6013C135.449 12.7213 135.449 12.8412 135.449 13.0813V16.3212H134.238V8.28125H135.449V11.6413C135.812 11.0413 136.418 10.6813 137.145 10.6813C137.629 10.6813 138.113 10.8012 138.355 11.1612C138.719 11.5212 138.961 12.2412 138.961 12.9612V16.3212Z" fill="white"/>
<path d="M145.621 13.3208C145.621 13.5608 145.621 13.6808 145.621 13.9208H141.988C141.988 14.5208 142.23 14.8808 142.473 15.1208C142.836 15.3608 143.199 15.4808 143.684 15.4808C144.289 15.4808 144.773 15.3608 145.137 15.2408L145.379 16.0808C144.895 16.3208 144.289 16.4408 143.563 16.4408C142.715 16.4408 141.988 16.2008 141.504 15.7208C141.02 15.2408 140.777 14.5208 140.777 13.6808C140.777 12.8408 141.02 12.1208 141.504 11.6408C141.988 11.0408 142.594 10.8008 143.441 10.8008C144.289 10.8008 144.895 11.0408 145.258 11.6408C145.5 12.0008 145.621 12.6008 145.621 13.3208ZM144.531 12.9608C144.531 12.6008 144.41 12.2408 144.289 12.0008C144.047 11.6408 143.805 11.5208 143.32 11.5208C142.957 11.5208 142.594 11.6408 142.352 12.0008C142.109 12.2408 141.988 12.6008 141.988 12.9608H144.531Z" fill="white"/>
</svg>
