<svg width="165" height="50" viewBox="0 0 165 50" fill="none" xmlns="http://www.w3.org/2000/svg">
<path d="M159.844 50H5.15625C2.32031 50 0 47.75 0 45V5C0 2.25 2.32031 0 5.15625 0H159.844C162.68 0 165 2.25 165 5V45C165 47.75 162.68 50 159.844 50Z" fill="black"/>
<path fill-rule="evenodd" clip-rule="evenodd" d="M15.8672 23.5216V10.9216C15.8672 10.2016 16.4727 9.60156 17.0781 9.60156C17.6836 9.60156 17.9258 9.72156 18.2891 9.96156L41.6602 22.6816C42.1445 22.9216 42.3867 23.2816 42.3867 23.6416C42.3867 24.0016 42.1445 24.3616 41.6602 24.6016L18.2891 37.3216C18.0469 37.4416 17.6836 37.6816 17.0781 37.6816C16.4727 37.6816 15.8672 37.0816 15.8672 36.3616V23.5216Z" fill="url(#paint0_linear)"/>
<path fill-rule="evenodd" clip-rule="evenodd" d="M31.0039 23.6416L16.8359 9.60156C16.957 9.60156 16.957 9.60156 17.0781 9.60156C17.6836 9.60156 17.9258 9.72156 18.2891 9.96156L35.4844 19.3216L31.0039 23.6416Z" fill="url(#paint1_linear)"/>
<path fill-rule="evenodd" clip-rule="evenodd" d="M35.3633 27.8381L31.0039 23.5181L35.4844 19.0781L41.6602 22.4381C42.1445 22.6781 42.3867 23.0381 42.3867 23.3981C42.3867 23.7581 42.1445 24.1181 41.6602 24.3581L35.3633 27.8381Z" fill="url(#paint2_linear)"/>
<path fill-rule="evenodd" clip-rule="evenodd" d="M16.957 37.4395L31.0039 23.5195L35.3633 27.8395L18.2891 37.0795C17.9258 37.3195 17.6836 37.4395 16.957 37.4395C17.0781 37.4395 17.0781 37.4395 16.957 37.4395Z" fill="url(#paint3_linear)"/>
<path fill-rule="evenodd" clip-rule="evenodd" d="M90.0976 40.6816C89.4921 40.2016 89.0077 39.3616 88.7656 38.8816L90.7031 38.0416C90.8242 38.2816 91.0663 38.6416 91.3085 39.0016C91.7929 39.4816 92.5195 39.9616 93.246 39.9616C93.9726 39.9616 94.8202 39.6016 95.3046 39.0016C95.6679 38.4016 95.9101 37.8016 95.9101 36.9616V36.2416C94.457 38.0416 91.4296 37.8016 89.7343 35.8816C87.9179 33.9616 87.9179 30.7216 89.7343 28.8016C91.5507 27.0016 94.2148 26.7616 95.789 28.4416V27.6016H97.8476V36.6016C97.8476 38.8816 96.9999 40.2016 95.9101 41.0416C95.1835 41.6416 94.0937 41.8816 93.1249 41.8816C92.0351 41.7616 90.9453 41.4016 90.0976 40.6816ZM140.836 41.1616L142.894 36.3616L139.262 28.0816H141.32L143.863 33.9616L146.406 28.0816H148.465L142.894 41.1616H140.836ZM131.027 36.6016C130.422 36.0016 130.18 35.1616 130.18 34.3216C130.18 33.6016 130.422 32.8816 130.906 32.4016C131.754 31.5616 132.965 31.2016 134.297 31.2016C135.144 31.2016 135.871 31.3216 136.476 31.6816C136.476 30.2416 135.266 29.6416 134.297 29.6416C133.449 29.6416 132.601 30.1216 132.238 30.9616L130.422 30.2416C130.785 29.4016 131.754 27.8416 134.176 27.8416C135.387 27.8416 136.598 28.2016 137.324 29.0416C138.051 29.8816 138.293 30.8416 138.293 32.1616V37.2016H136.234V36.3616C135.992 36.7216 135.508 36.9616 135.144 37.2016C134.66 37.4416 134.055 37.5616 133.449 37.5616C132.723 37.4416 131.633 37.2016 131.027 36.6016ZM66.4843 32.2816C66.4843 29.8816 68.3007 27.2416 71.5702 27.2416C74.7187 27.2416 76.6562 29.8816 76.6562 32.2816C76.6562 34.6816 74.8398 37.3216 71.5702 37.3216C68.3007 37.3216 66.4843 34.6816 66.4843 32.2816ZM77.3828 32.2816C77.3828 29.8816 79.1992 27.2416 82.4687 27.2416C85.6171 27.2416 87.5546 29.8816 87.5546 32.2816C87.5546 34.6816 85.7382 37.3216 82.4687 37.3216C79.3202 37.3216 77.3828 34.6816 77.3828 32.2816ZM52.8007 34.9216C49.7734 31.9216 49.8945 27.0016 52.9218 23.8816C54.496 22.3216 56.4335 21.6016 58.4921 21.6016C60.4296 21.6016 62.3671 22.3216 63.8202 23.7616L62.3671 25.3216C60.1874 23.1616 56.6757 23.2816 54.6171 25.4416C52.4374 27.7216 52.4374 31.2016 54.6171 33.4816C56.7968 35.7616 60.4296 35.8816 62.6093 33.6016C63.3359 32.8816 63.5781 31.9216 63.6992 30.9616H58.6132V28.8016H65.7577C65.8788 29.2816 65.8788 29.8816 65.8788 30.4816C65.8788 32.2816 65.1523 34.0816 63.9413 35.2816C62.6093 36.6016 60.6718 37.3216 58.7343 37.3216C56.5546 37.2016 54.3749 36.4816 52.8007 34.9216ZM104.023 35.7616C102.207 33.8416 102.207 30.6016 104.023 28.5616C105.84 26.6416 108.867 26.6416 110.562 28.5616C111.168 29.1616 111.531 30.0016 111.894 30.8416L105.234 33.6016C105.598 34.4416 106.445 35.1616 107.656 35.1616C108.746 35.1616 109.473 34.8016 110.199 33.7216L112.016 34.9216C111.773 35.1616 111.531 35.4016 111.41 35.6416C109.352 37.6816 105.84 37.6816 104.023 35.7616ZM116.617 37.2016V23.8816H120.977C123.519 23.8816 125.578 25.6816 125.578 27.8416C125.578 30.0016 123.762 31.8016 121.461 31.8016H118.797V37.0816H116.617V37.2016ZM126.789 37.2016V23.8816H128.848V37.2016H126.789ZM99.4218 36.9616V22.0816H101.602V36.9616H99.4218ZM136.355 33.2416C135.871 32.8816 135.144 32.7616 134.418 32.7616C132.965 32.7616 132.117 33.4816 132.117 34.3216C132.117 35.1616 132.965 35.6416 133.812 35.6416C135.023 35.6416 136.355 34.6816 136.355 33.2416ZM74.3554 32.2816C74.3554 30.8416 73.3867 29.2816 71.5702 29.2816C69.7538 29.2816 68.7851 30.8416 68.7851 32.2816C68.7851 33.7216 69.7538 35.2816 71.5702 35.2816C73.2656 35.2816 74.3554 33.7216 74.3554 32.2816ZM85.2538 32.2816C85.2538 30.8416 84.2851 29.2816 82.4687 29.2816C80.6523 29.2816 79.6835 30.8416 79.6835 32.2816C79.6835 33.7216 80.6523 35.2816 82.4687 35.2816C84.2851 35.2816 85.2538 33.7216 85.2538 32.2816ZM96.0312 33.1216C96.0312 33.0016 96.0312 32.8816 96.1523 32.7616C96.1523 32.6416 96.1523 32.4016 96.1523 32.2816C96.1523 32.1616 96.1523 31.9216 96.1523 31.8016V31.6816C96.1523 31.5616 96.0312 31.3216 96.0312 31.2016C95.6679 30.0016 94.5781 29.1616 93.4882 29.1616C92.0351 29.1616 90.8242 30.6016 90.8242 32.1616C90.8242 33.8416 92.0351 35.1616 93.6093 35.1616C94.5781 35.2816 95.5468 34.4416 96.0312 33.1216ZM104.871 32.0416L109.351 30.1216C108.867 29.2816 108.141 29.0416 107.535 29.0416C105.719 29.1616 104.629 31.0816 104.871 32.0416ZM123.398 27.9616C123.398 26.7616 122.43 25.9216 121.098 25.9216H118.676V30.1216H121.219C122.43 30.1216 123.398 29.1616 123.398 27.9616Z" fill="white"/>
<path d="M51.1055 12.1206C51.1055 9.96062 52.6797 8.64062 54.6172 8.64062C55.9492 8.64062 56.7969 9.24062 57.4024 10.0806L56.4336 10.6806C56.0703 10.2006 55.4649 9.84063 54.6172 9.84063C53.2852 9.84063 52.3164 10.8006 52.3164 12.2406C52.3164 13.6806 53.2852 14.6406 54.6172 14.6406C55.3438 14.6406 55.9492 14.2806 56.1914 14.0406V12.9606H54.2539V11.8806H57.5234V14.4006C56.918 15.1206 55.9492 15.6006 54.7383 15.6006C52.6797 15.6006 51.1055 14.1606 51.1055 12.1206Z" fill="white"/>
<path d="M58.9766 15.4817V8.76172H63.5781V9.84172H60.0664V11.5217H63.457V12.6017H60.0664V14.5217H63.5781V15.6017L58.9766 15.4817Z" fill="white"/>
<path d="M66.9687 15.4817V9.84172H64.9102V8.76172H70.2383V9.84172H68.1797V15.4817H66.9687Z" fill="white"/>
<path d="M74.3555 15.4817V8.76172H75.5664V15.4817H74.3555Z" fill="white"/>
<path d="M78.8359 15.4817V9.84172H76.7773V8.76172H82.1055V9.84172H80.0469V15.4817H78.8359Z" fill="white"/>
<path d="M85.9805 12.1206C85.9805 10.0806 87.4336 8.64062 89.4922 8.64062C91.5508 8.64062 93.0039 10.0806 93.0039 12.1206C93.0039 14.1606 91.5508 15.6006 89.4922 15.6006C87.4336 15.6006 85.9805 14.0406 85.9805 12.1206ZM91.6719 12.1206C91.6719 10.6806 90.8242 9.72062 89.3711 9.72062C88.0391 9.72062 87.0703 10.8006 87.0703 12.1206C87.0703 13.5606 87.918 14.5206 89.3711 14.5206C90.8242 14.5206 91.6719 13.4406 91.6719 12.1206Z" fill="white"/>
<path d="M99.0586 15.4817L95.5469 10.6817V15.4817H94.3359V8.76172H95.5469L99.0586 13.4417V8.76172H100.27V15.4817H99.0586Z" fill="white"/>
<defs>
<linearGradient id="paint0_linear" x1="23.6988" y1="7.88988" x2="30.3627" y2="35.5068" gradientUnits="userSpaceOnUse">
<stop stop-color="#006884"/>
<stop offset="1" stop-color="#8AD1D0"/>
</linearGradient>
<linearGradient id="paint1_linear" x1="15.4321" y1="11.8141" x2="33.83" y2="21.8508" gradientUnits="userSpaceOnUse">
<stop stop-color="#24BBB6"/>
<stop offset="1" stop-color="#DBE692"/>
</linearGradient>
<linearGradient id="paint2_linear" x1="36.6885" y1="28.3422" x2="36.6885" y2="18.8042" gradientUnits="userSpaceOnUse">
<stop stop-color="#FCC072"/>
<stop offset="1" stop-color="#F58A5B"/>
</linearGradient>
<linearGradient id="paint3_linear" x1="19.0092" y1="39.9225" x2="33.4684" y2="25.073" gradientUnits="userSpaceOnUse">
<stop stop-color="#712B8F"/>
<stop offset="1" stop-color="#EA1D27"/>
</linearGradient>
</defs>
</svg>
